HIERARCHY
ROOT root_translation_joint
{
	OFFSET	0	0	0
	CHANNELS 6 Xposition Yposition Zposition Zrotation Xrotation Yrotation
	JOINT head_joint
	{
		OFFSET	0	0.4982	0
		CHANNELS 3  Zrotation Xrotation Yrotation
		JOINT middleleftshoulder_joint
		{
			OFFSET	0	0	0
			CHANNELS 3  Zrotation Xrotation Yrotation
			JOINT MiddleLeftUpperLimb_x_joint
			{
				OFFSET	-0.4	0	-0.14
				CHANNELS 3  Zrotation Xrotation Yrotation
				JOINT MiddleLeftLimb_joint
				{
					OFFSET	-0.4456	0.0015	0.1781
					CHANNELS 3  Zrotation Xrotation Yrotation
					JOINT MiddleLeftLowerLimb_joint
					{
						OFFSET	-0.3928	-0.0167	-0.3044
						CHANNELS 3  Zrotation Xrotation Yrotation
						JOINT MiddleLeftEffector_x_joint
						{
							OFFSET	-0.4343	-0.054	-0.1597
							CHANNELS 3  Zrotation Xrotation Yrotation
							JOINT Middleleft_foot_endeffector_joint
							{
								OFFSET	-0.024924	-0.097428	0.001788
								CHANNELS 3  Zrotation Xrotation Yrotation
								End Site
								{
									OFFSET	-0.0001239	-0.000484324	8.88832e-06
								}
							}
							JOINT Middleleft_foot_cp_1_joint
							{
								OFFSET	-0.05	0.02	-0.005
								CHANNELS 3  Zrotation Xrotation Yrotation
								End Site
								{
									OFFSET	-0.00046225	0.0001849	-4.6225e-05
								}
							}
							JOINT Middleleft_foot_cp_2_joint
							{
								OFFSET	-0.12	0.02	-0.005
								CHANNELS 3  Zrotation Xrotation Yrotation
								End Site
								{
									OFFSET	-0.000492781	8.21302e-05	-2.05325e-05
								}
							}
							JOINT Middleleft_foot_cp_3_joint
							{
								OFFSET	-0.12	-0.08	-0.005
								CHANNELS 3  Zrotation Xrotation Yrotation
								End Site
								{
									OFFSET	-0.000415775	-0.000277184	-1.7324e-05
								}
							}
							JOINT Middleleft_foot_cp_4_joint
							{
								OFFSET	-0.05	-0.08	-0.005
								CHANNELS 3  Zrotation Xrotation Yrotation
								End Site
								{
									OFFSET	-0.000264628	-0.000423405	-2.64628e-05
								}
							}
						}
					}
				}
			}
		}
		JOINT BackRightshoulder_joint
		{
			OFFSET	0	0	0
			CHANNELS 3  Zrotation Xrotation Yrotation
			JOINT BackRightUpperLimb_x_joint
			{
				OFFSET	-0.4	0	-0.14
				CHANNELS 3  Zrotation Xrotation Yrotation
				JOINT BackRightLimb_joint
				{
					OFFSET	-0.4456	0.0015	0.1781
					CHANNELS 3  Zrotation Xrotation Yrotation
					JOINT BackRightLowerLimb_joint
					{
						OFFSET	-0.3928	-0.0167	-0.3044
						CHANNELS 3  Zrotation Xrotation Yrotation
						JOINT BackRightEffector_x_joint
						{
							OFFSET	-0.4343	-0.054	-0.1597
							CHANNELS 3  Zrotation Xrotation Yrotation
							JOINT BackRight_foot_endeffector_joint
							{
								OFFSET	-0.024924	-0.097428	0.001788
								CHANNELS 3  Zrotation Xrotation Yrotation
								End Site
								{
									OFFSET	-0.0001239	-0.000484324	8.88832e-06
								}
							}
							JOINT BackRight_foot_cp_1_joint
							{
								OFFSET	-0.05	0.02	-0.005
								CHANNELS 3  Zrotation Xrotation Yrotation
								End Site
								{
									OFFSET	-0.00046225	0.0001849	-4.6225e-05
								}
							}
							JOINT BackRight_foot_cp_2_joint
							{
								OFFSET	-0.12	0.02	-0.005
								CHANNELS 3  Zrotation Xrotation Yrotation
								End Site
								{
									OFFSET	-0.000492781	8.21302e-05	-2.05325e-05
								}
							}
							JOINT BackRight_foot_cp_3_joint
							{
								OFFSET	-0.12	-0.08	-0.005
								CHANNELS 3  Zrotation Xrotation Yrotation
								End Site
								{
									OFFSET	-0.000415775	-0.000277184	-1.7324e-05
								}
							}
							JOINT BackRight_foot_cp_4_joint
							{
								OFFSET	-0.05	-0.08	-0.005
								CHANNELS 3  Zrotation Xrotation Yrotation
								End Site
								{
									OFFSET	-0.000264628	-0.000423405	-2.64628e-05
								}
							}
						}
					}
				}
			}
		}
		JOINT FrontRightshoulder_joint
		{
			OFFSET	0	0	0
			CHANNELS 3  Zrotation Xrotation Yrotation
			JOINT FrontRightUpperLimb_x_joint
			{
				OFFSET	-0.4	0	-0.14
				CHANNELS 3  Zrotation Xrotation Yrotation
				JOINT FrontRightLimb_joint
				{
					OFFSET	-0.4456	0.0015	0.1781
					CHANNELS 3  Zrotation Xrotation Yrotation
					JOINT FrontRightLowerLimb_joint
					{
						OFFSET	-0.3928	-0.0167	-0.3044
						CHANNELS 3  Zrotation Xrotation Yrotation
						JOINT FrontRightEffector_x_joint
						{
							OFFSET	-0.4343	-0.054	-0.1597
							CHANNELS 3  Zrotation Xrotation Yrotation
							JOINT FrontRight_foot_endeffector_joint
							{
								OFFSET	-0.024924	-0.097428	0.001788
								CHANNELS 3  Zrotation Xrotation Yrotation
								End Site
								{
									OFFSET	-0.0001239	-0.000484324	8.88832e-06
								}
							}
							JOINT FrontRight_foot_cp_1_joint
							{
								OFFSET	-0.05	0.02	-0.005
								CHANNELS 3  Zrotation Xrotation Yrotation
								End Site
								{
									OFFSET	-0.00046225	0.0001849	-4.6225e-05
								}
							}
							JOINT FrontRight_foot_cp_2_joint
							{
								OFFSET	-0.12	0.02	-0.005
								CHANNELS 3  Zrotation Xrotation Yrotation
								End Site
								{
									OFFSET	-0.000492781	8.21302e-05	-2.05325e-05
								}
							}
							JOINT FrontRight_foot_cp_3_joint
							{
								OFFSET	-0.12	-0.08	-0.005
								CHANNELS 3  Zrotation Xrotation Yrotation
								End Site
								{
									OFFSET	-0.000415775	-0.000277184	-1.7324e-05
								}
							}
							JOINT FrontRight_foot_cp_4_joint
							{
								OFFSET	-0.05	-0.08	-0.005
								CHANNELS 3  Zrotation Xrotation Yrotation
								End Site
								{
									OFFSET	-0.000264628	-0.000423405	-2.64628e-05
								}
							}
						}
					}
				}
			}
		}
	}
}
MOTION
Frames:	8
Frame Time: 1
0	0	0	-90.0002	0.000210459	-90	-0	0	-0	-0	0	-0	-0	0	-0	-0	0	-0	-0	0	-0	-0	0	-0	-0	0	-0	-0	0	-0	-0	0	-0	-0	0	-0	-0	0	-0	135	0	-0	-0	0	-0	-0	0	-0	-0	0	-0	-0	0	-0	-0	0	-0	-0	0	-0	-0	0	-0	-0	0	-0	-0	0	-0	-135	0	-0	-0	0	-0	-0	0	-0	-0	0	-0	-0	0	-0	-0	0	-0	-0	0	-0	-0	0	-0	-0	0	-0	-0	0	-0
0.5	2	1	90.0002	0.000210459	90	-0	0	-0	-0	0	-0	-58.9938	-28.1409	-33.5942	-0	0	1.39738	-0	0	-57.2715	-24.6104	-14.7854	-78.4133	-0.0572958	0	-0	-0	0	-0	-0	0	-0	-0	0	-0	-0	0	-0	135	0	-0	-7.30344	-7.68843	-34.6339	-0	0	-37.0201	-0	0	-48.8185	-6.91891	-25.8203	-32.8663	-0.0572958	0	-0	-0	0	-0	-0	0	-0	-0	0	-0	-0	0	-0	-135	0	-0	37.004	3.1176	-48.4781	-0	0	-30.7252	-0	0	-52.5193	16.0515	-0.106871	-19.5737	-0.0572958	0	-0	-0	0	-0	-0	0	-0	-0	0	-0	-0	0	-0
0.464022	1.91259	0.967373	92.3191	2.11039	81.4899	-0	0	-0	-0	0	-0	-49.3003	-37.3827	-11.8136	-0	0	-2.19754	-0	0	-67.2272	-27.6584	-16.0931	-78.2817	-0.0572958	0	-0	-0	0	-0	-0	0	-0	-0	0	-0	-0	0	-0	135	0	-0	-0.698657	-0.773648	-32.5508	-0	0	-44.3155	-0	0	-49.7459	-10.2844	-28.8451	-36.9811	-0.0572958	0	-0	-0	0	-0	-0	0	-0	-0	0	-0	-0	0	-0	-135	0	-0	27.5994	-3.39399	-41.7006	-0	0	-59.7909	-0	0	-17.3089	18.3821	-5.79172	-32.3328	-0.0572958	0	-0	-0	0	-0	-0	0	-0	-0	0	-0	-0	0	-0
0.428044	1.82517	0.934747	94.9302	3.85222	72.8867	-0	0	-0	-0	0	-0	-35.1915	-45.0087	11.7336	-0	0	-2.17173	-0	0	-75.5754	-32.2419	-16.3094	-79.3485	-0.0572958	0	-0	-0	0	-0	-0	0	-0	-0	0	-0	-0	0	-0	135	0	-0	4.38747	5.50755	-33.6106	-0	0	-48.5612	-0	0	-53.7269	-9.71343	-28.505	-38.642	-0.0572958	0	-0	-0	0	-0	-0	0	-0	-0	0	-0	-0	0	-0	-135	0	-0	5.54222	-10.1563	-55.7147	-0	0	-58.7678	-0	0	-23.2082	24.6342	5.04968	-28.2458	-0.0572958	0	-0	-0	0	-0	-0	0	-0	-0	0	-0	-0	0	-0
0.392067	1.73776	0.90212	97.7785	5.18215	64.1954	-0	0	-0	-0	0	-0	-15.9798	-49.7672	37.097	-0	0	2.39437	-0	0	-81.9855	-39.3764	-14.857	-82.0266	-0.0572958	0	-0	-0	0	-0	-0	0	-0	-0	0	-0	-0	0	-0	135	0	-0	9.84314	10.9644	-35.797	-0	0	-52.5897	-0	0	-57.2236	-7.76206	-26.8359	-40.4556	-0.0572958	0	-0	-0	0	-0	-0	0	-0	-0	0	-0	-0	0	-0	-135	0	-0	13.2007	-0.705612	-43.9251	-0	0	-53.8383	-0	0	-47.6372	29.8289	16.147	-22.6517	-0.0572958	0	-0	-0	0	-0	-0	0	-0	-0	0	-0	-0	0	-0
0.356089	1.65035	0.869494	100.801	6.0659	55.4315	-0	0	-0	-0	0	-0	8.7851	-51.8333	62.5106	-0	0	11.3799	-0	0	-86.8316	-51.1573	-11.7447	-85.7142	-0.0572958	0	-0	-0	0	-0	-0	0	-0	-0	0	-0	-0	0	-0	135	0	-0	15.9994	15.3811	-39.0355	-0	0	-56.7386	-0	0	-60.7401	-4.5088	-24.1985	-42.5112	-0.0572958	0	-0	-0	0	-0	-0	0	-0	-0	0	-0	-0	0	-0	-135	0	-0	41.2548	-1.54174	-36.3092	-0	0	-53.084	-0	0	-53.2903	15.9937	19.3239	-4.93331	-0.0572958	0	-0	-0	0	-0	-0	0	-0	-0	0	-0	-0	0	-0
0.320111	1.56293	0.836867	103.928	6.47958	46.6225	-0	0	-0	-0	0	-0	41.3105	-49.7666	88.0782	-0	0	23.3617	-0	0	-89.1596	-68.9289	-9.78892	-88.5026	-0.0572958	0	-0	-0	0	-0	-0	0	-0	-0	0	-0	-0	0	-0	135	0	-0	22.976	19.027	-42.6944	-0	0	-60.5196	-0	0	-63.8966	-0.519201	-21.2309	-44.5526	-0.0572958	0	-0	-0	0	-0	-0	0	-0	-0	0	-0	-0	0	-0	-135	0	-0	-1.71426	-12.6142	-61.2396	-0	0	-68.7108	-0	0	-38.9422	27.2675	36.3168	-16.2808	-0.0572958	0	-0	-0	0	-0	-0	0	-0	-0	0	-0	-0	0	-0
0.320111	1.56293	0.836867	103.928	6.47958	46.6225	-0	0	-0	-0	0	-0	16.3851	-37.8852	75.4185	-0	0	17.4645	-0	0	-84.5101	-43.0825	-14.6716	-83.0293	-0.0572958	0	-0	-0	0	-0	-0	0	-0	-0	0	-0	-0	0	-0	135	0	-0	23.0264	19.1386	-42.3252	-0	0	-60.4011	-0	0	-63.6228	-1.25038	-21.7941	-44.0325	-0.0572958	0	-0	-0	0	-0	-0	0	-0	-0	0	-0	-0	0	-0	-135	0	-0	-2.05614	-11.1997	-62.0422	-0	0	-68.0959	-0	0	-40.3685	23.9065	28.9688	-14.7931	-0.0572958	0	-0	-0	0	-0	-0	0	-0	-0	0	-0	-0	0	-0
